
            <svg xmlns="http://www.w3.org/2000/svg" xmlns:cc="http://creativecommons.org/ns#" xmlns:rdf="http://www.w3.org/1999/02/22-rdf-syntax-ns#" version="1.1" width="574.4376220703125" height="256">
              <defs>
                <style type="text/css">svg {
            background-color: #fff; }
          
          .root text,
          .root tspan {
            font: 12px Arial; }
          
          .root path {
            fill-opacity: 0;
            stroke-width: 2px;
            stroke: #000; }
          
          .root circle {
            fill: #6b6659;
            stroke-width: 2px;
            stroke: #000; }
          
          .anchor text, .any-character text {
            fill: #fff; }
          
          .anchor rect, .any-character rect {
            fill: #6b6659; }
          
          .escape text, .charset-escape text, .literal text {
            fill: #000; }
          
          .escape rect, .charset-escape rect {
            fill: #bada55; }
          
          .literal rect {
            fill: #dae9e5; }
          
          .charset .charset-box {
            fill: #cbcbba; }
          
          .subexp .subexp-label tspan,
          .charset .charset-label tspan,
          .match-fragment .repeat-label tspan {
            font-size: 10px; }
          
          .repeat-label {
            cursor: help; }
          
          .subexp .subexp-label tspan,
          .charset .charset-label tspan {
            dominant-baseline: text-after-edge; }
          
          .subexp .subexp-box {
            stroke: #908c83;
            stroke-dasharray: 6,2;
            stroke-width: 2px;
            fill-opacity: 0; }
          
          .quote {
            fill: #908c83; }
          </style>
              </defs>
              <metadata>
                <rdf:rdf>
                  <cc:license rdf:about="http://creativecommons.org/licenses/by/3.0/">
                    <cc:permits rdf:resource="http://creativecommons.org/ns#Reproduction"></cc:permits>
                    <cc:permits rdf:resource="http://creativecommons.org/ns#Distribution"></cc:permits>
                    <cc:requires rdf:resource="http://creativecommons.org/ns#Notice"></cc:requires>
                    <cc:requires rdf:resource="http://creativecommons.org/ns#Attribution"></cc:requires>
                    <cc:permits rdf:resource="http://creativecommons.org/ns#DerivativeWorks"></cc:permits>
                  </cc:license>
                </rdf:rdf>
              </metadata>
            <desc>Created with Snap</desc><g class="root" transform="matrix(1,0,0,1,15,10)"><g class="regexp match match-fragment subexp" transform="matrix(1,0,0,1,10,0)"><rect rx="3" ry="3" class="subexp-box" transform="matrix(1,0,0,1,0,11)" width="524.4375915527344" height="225"></rect><text x="0" y="0" class="subexp-label" transform="matrix(1,0,0,1,0,11)"><tspan>group #1</tspan></text><g class="regexp match" transform="matrix(1,0,0,1,10,21)"><path d="M260.39065,91H285.3907"></path><g class="match-fragment" transform="matrix(1,0,0,1,0,0)"><path d="M10,91q-10,0 -10,10v81q0,10 10,10h250.39065551757812q10,0 10,-10v-81q0,-10 -10,-10M270.3906555175781,106l5,-5m-5,5l-5,-5"></path><g class="subexp regexp match" transform="matrix(1,0,0,1,10,0)"><path d="M219.04690551757812,91H229.0469"></path><g class="match-fragment subexp regexp" transform="matrix(1,0,0,1,0,0)"><path d="M10,37.75q0,-10 10,-10M209.04690551757812,37.75q0,-10 -10,-10M0,91c10,0 10,-13.75 20,-13.75M219.04690551757812,91c-10,0 -10,-13.75 -20,-13.75M10,141q0,10 10,10M209.04690551757812,141q0,10 -10,10M0,91q10,0 10,-10V37.75M219.04690551757812,91q-10,0 -10,-10V37.75M0,91q10,0 10,10V141M219.04690551757812,91q-10,0 -10,10V141"></path><g transform="matrix(1,0,0,1,20,0)" class="regexp-matches"><path d="M0,27.75h32.1797M146.86728051757814,27.75H179.04690551757812M0,77.25h14.4219M164.62509999999997,77.25H179.04690551757812M0,151h15M179.0469,151H179.04690551757812"></path><g class="match" transform="matrix(1,0,0,1,32.1797,0)"><path d="M31.34375,27.75H41.3438"></path><g class="match-fragment literal" transform="matrix(1,0,0,1,0,16)"><g class="label"><rect width="31.34375" height="23.5" rx="3" ry="3"></rect><text x="0" y="0" transform="matrix(1,0,0,1,5,16.75)"><tspan class="quote">“</tspan><tspan>25</tspan><tspan class="quote">”</tspan></text></g></g><g class="match-fragment charset" transform="matrix(1,0,0,1,41.3438,0)"><rect rx="3" ry="3" class="charset-box" transform="matrix(1,0,0,1,0,11)" width="73.34377670288086" height="33.5"></rect><text x="0" y="0" class="charset-label" transform="matrix(1,0,0,1,0,11)"><tspan>One of:</tspan></text><g transform="matrix(1,0,0,1,5,16)"><g class="charset-range" transform="matrix(1,0,0,1,0,0)"><text x="0" y="0" transform="matrix(1,0,0,1,29.6719,16)">-</text><g class="literal" transform="matrix(1,0,0,1,0,0)"><g class="label"><rect width="24.671875" height="23.5" rx="3" ry="3"></rect><text x="0" y="0" transform="matrix(1,0,0,1,5,16.75)"><tspan class="quote">“</tspan><tspan>0</tspan><tspan class="quote">”</tspan></text></g></g><g class="literal" transform="matrix(1,0,0,1,38.6719,0)"><g class="label"><rect width="24.671875" height="23.5" rx="3" ry="3"></rect><text x="0" y="0" transform="matrix(1,0,0,1,5,16.75)"><tspan class="quote">“</tspan><tspan>5</tspan><tspan class="quote">”</tspan></text></g></g></g></g></g></g><g class="match" transform="matrix(1,0,0,1,14.4219,49.5)"><path d="M24.671875,27.75H34.6719M108.01568051757812,27.75H118.0157"></path><g class="match-fragment literal" transform="matrix(1,0,0,1,0,16)"><g class="label"><rect width="24.671875" height="23.5" rx="3" ry="3"></rect><text x="0" y="0" transform="matrix(1,0,0,1,5,16.75)"><tspan class="quote">“</tspan><tspan>2</tspan><tspan class="quote">”</tspan></text></g></g><g class="match-fragment charset" transform="matrix(1,0,0,1,34.6719,0)"><rect rx="3" ry="3" class="charset-box" transform="matrix(1,0,0,1,0,11)" width="73.34377670288086" height="33.5"></rect><text x="0" y="0" class="charset-label" transform="matrix(1,0,0,1,0,11)"><tspan>One of:</tspan></text><g transform="matrix(1,0,0,1,5,16)"><g class="charset-range" transform="matrix(1,0,0,1,0,0)"><text x="0" y="0" transform="matrix(1,0,0,1,29.6719,16)">-</text><g class="literal" transform="matrix(1,0,0,1,0,0)"><g class="label"><rect width="24.671875" height="23.5" rx="3" ry="3"></rect><text x="0" y="0" transform="matrix(1,0,0,1,5,16.75)"><tspan class="quote">“</tspan><tspan>0</tspan><tspan class="quote">”</tspan></text></g></g><g class="literal" transform="matrix(1,0,0,1,38.6719,0)"><g class="label"><rect width="24.671875" height="23.5" rx="3" ry="3"></rect><text x="0" y="0" transform="matrix(1,0,0,1,5,16.75)"><tspan class="quote">“</tspan><tspan>4</tspan><tspan class="quote">”</tspan></text></g></g></g></g></g><g class="match-fragment escape" transform="matrix(1,0,0,1,118.0157,16)"><g class="label"><rect width="32.1875" height="23.5" rx="3" ry="3"></rect><text x="0" y="0" transform="matrix(1,0,0,1,5,16.75)"><tspan>digit</tspan></text></g></g></g><g class="match" transform="matrix(1,0,0,1,0,99)"><path d="M49.671875,52H89.6719M121.8594,52H146.8594"></path><g class="match-fragment" transform="matrix(1,0,0,1,0,0)"><path d="M0,52q10,0 10,-10v-32q0,-10 10,-10h24.671875q10,0 10,10v32q0,10 10,10"></path><g class="charset" transform="matrix(1,0,0,1,15,10)"><rect rx="3" ry="3" class="charset-box" transform="matrix(1,0,0,1,0,11)" width="34.671875" height="62"></rect><text x="0" y="0" class="charset-label" transform="matrix(1,0,0,1,0,11)"><tspan>One of:</tspan></text><g transform="matrix(1,0,0,1,5,16)"><g class="literal" transform="matrix(1,0,0,1,0,0)"><g class="label"><rect width="24.671875" height="23.5" rx="3" ry="3"></rect><text x="0" y="0" transform="matrix(1,0,0,1,5,16.75)"><tspan class="quote">“</tspan><tspan>0</tspan><tspan class="quote">”</tspan></text></g></g><g class="literal" transform="matrix(1,0,0,1,0,28.5)"><g class="label"><rect width="24.671875" height="23.5" rx="3" ry="3"></rect><text x="0" y="0" transform="matrix(1,0,0,1,5,16.75)"><tspan class="quote">“</tspan><tspan>1</tspan><tspan class="quote">”</tspan></text></g></g></g></g></g><g class="match-fragment" transform="matrix(1,0,0,1,74.6719,30.25)"><path d="M0,21.75q10,0 10,-10v-1.75q0,-10 10,-10h22.1875q10,0 10,10v1.75q0,10 10,10"></path><g class="escape" transform="matrix(1,0,0,1,15,10)"><g class="label"><rect width="32.1875" height="23.5" rx="3" ry="3"></rect><text x="0" y="0" transform="matrix(1,0,0,1,5,16.75)"><tspan>digit</tspan></text></g></g></g><g class="match-fragment escape" transform="matrix(1,0,0,1,146.8594,40.25)"><g class="label"><rect width="32.1875" height="23.5" rx="3" ry="3"></rect><text x="0" y="0" transform="matrix(1,0,0,1,5,16.75)"><tspan>digit</tspan></text></g></g></g></g></g><g class="match-fragment literal" transform="matrix(1,0,0,1,229.0469,79.25)"><g class="label"><rect width="21.34375" height="23.5" rx="3" ry="3"></rect><text x="0" y="0" transform="matrix(1,0,0,1,5,16.75)"><tspan class="quote">“</tspan><tspan>.</tspan><tspan class="quote">”</tspan></text></g></g></g><text x="0" y="0" class="repeat-label" transform="matrix(1,0,0,1,243.1563,203)"><tspan>2 times</tspan><title><text x="0" y="0">repeats 3 times in total</text></title></text></g><g class="match-fragment subexp regexp" transform="matrix(1,0,0,1,285.3907,0)"><path d="M10,37.75q0,-10 10,-10M209.04690551757812,37.75q0,-10 -10,-10M0,91c10,0 10,-13.75 20,-13.75M219.04690551757812,91c-10,0 -10,-13.75 -20,-13.75M10,141q0,10 10,10M209.04690551757812,141q0,10 -10,10M0,91q10,0 10,-10V37.75M219.04690551757812,91q-10,0 -10,-10V37.75M0,91q10,0 10,10V141M219.04690551757812,91q-10,0 -10,10V141"></path><g transform="matrix(1,0,0,1,20,0)" class="regexp-matches"><path d="M0,27.75h32.1797M146.86728051757814,27.75H179.04690551757812M0,77.25h14.4219M164.62509999999997,77.25H179.04690551757812M0,151h15M179.0469,151H179.04690551757812"></path><g class="match" transform="matrix(1,0,0,1,32.1797,0)"><path d="M31.34375,27.75H41.3438"></path><g class="match-fragment literal" transform="matrix(1,0,0,1,0,16)"><g class="label"><rect width="31.34375" height="23.5" rx="3" ry="3"></rect><text x="0" y="0" transform="matrix(1,0,0,1,5,16.75)"><tspan class="quote">“</tspan><tspan>25</tspan><tspan class="quote">”</tspan></text></g></g><g class="match-fragment charset" transform="matrix(1,0,0,1,41.3438,0)"><rect rx="3" ry="3" class="charset-box" transform="matrix(1,0,0,1,0,11)" width="73.34377670288086" height="33.5"></rect><text x="0" y="0" class="charset-label" transform="matrix(1,0,0,1,0,11)"><tspan>One of:</tspan></text><g transform="matrix(1,0,0,1,5,16)"><g class="charset-range" transform="matrix(1,0,0,1,0,0)"><text x="0" y="0" transform="matrix(1,0,0,1,29.6719,16)">-</text><g class="literal" transform="matrix(1,0,0,1,0,0)"><g class="label"><rect width="24.671875" height="23.5" rx="3" ry="3"></rect><text x="0" y="0" transform="matrix(1,0,0,1,5,16.75)"><tspan class="quote">“</tspan><tspan>0</tspan><tspan class="quote">”</tspan></text></g></g><g class="literal" transform="matrix(1,0,0,1,38.6719,0)"><g class="label"><rect width="24.671875" height="23.5" rx="3" ry="3"></rect><text x="0" y="0" transform="matrix(1,0,0,1,5,16.75)"><tspan class="quote">“</tspan><tspan>5</tspan><tspan class="quote">”</tspan></text></g></g></g></g></g></g><g class="match" transform="matrix(1,0,0,1,14.4219,49.5)"><path d="M24.671875,27.75H34.6719M108.01568051757812,27.75H118.0157"></path><g class="match-fragment literal" transform="matrix(1,0,0,1,0,16)"><g class="label"><rect width="24.671875" height="23.5" rx="3" ry="3"></rect><text x="0" y="0" transform="matrix(1,0,0,1,5,16.75)"><tspan class="quote">“</tspan><tspan>2</tspan><tspan class="quote">”</tspan></text></g></g><g class="match-fragment charset" transform="matrix(1,0,0,1,34.6719,0)"><rect rx="3" ry="3" class="charset-box" transform="matrix(1,0,0,1,0,11)" width="73.34377670288086" height="33.5"></rect><text x="0" y="0" class="charset-label" transform="matrix(1,0,0,1,0,11)"><tspan>One of:</tspan></text><g transform="matrix(1,0,0,1,5,16)"><g class="charset-range" transform="matrix(1,0,0,1,0,0)"><text x="0" y="0" transform="matrix(1,0,0,1,29.6719,16)">-</text><g class="literal" transform="matrix(1,0,0,1,0,0)"><g class="label"><rect width="24.671875" height="23.5" rx="3" ry="3"></rect><text x="0" y="0" transform="matrix(1,0,0,1,5,16.75)"><tspan class="quote">“</tspan><tspan>0</tspan><tspan class="quote">”</tspan></text></g></g><g class="literal" transform="matrix(1,0,0,1,38.6719,0)"><g class="label"><rect width="24.671875" height="23.5" rx="3" ry="3"></rect><text x="0" y="0" transform="matrix(1,0,0,1,5,16.75)"><tspan class="quote">“</tspan><tspan>4</tspan><tspan class="quote">”</tspan></text></g></g></g></g></g><g class="match-fragment escape" transform="matrix(1,0,0,1,118.0157,16)"><g class="label"><rect width="32.1875" height="23.5" rx="3" ry="3"></rect><text x="0" y="0" transform="matrix(1,0,0,1,5,16.75)"><tspan>digit</tspan></text></g></g></g><g class="match" transform="matrix(1,0,0,1,0,99)"><path d="M49.671875,52H89.6719M121.8594,52H146.8594"></path><g class="match-fragment" transform="matrix(1,0,0,1,0,0)"><path d="M0,52q10,0 10,-10v-32q0,-10 10,-10h24.671875q10,0 10,10v32q0,10 10,10"></path><g class="charset" transform="matrix(1,0,0,1,15,10)"><rect rx="3" ry="3" class="charset-box" transform="matrix(1,0,0,1,0,11)" width="34.671875" height="62"></rect><text x="0" y="0" class="charset-label" transform="matrix(1,0,0,1,0,11)"><tspan>One of:</tspan></text><g transform="matrix(1,0,0,1,5,16)"><g class="literal" transform="matrix(1,0,0,1,0,0)"><g class="label"><rect width="24.671875" height="23.5" rx="3" ry="3"></rect><text x="0" y="0" transform="matrix(1,0,0,1,5,16.75)"><tspan class="quote">“</tspan><tspan>0</tspan><tspan class="quote">”</tspan></text></g></g><g class="literal" transform="matrix(1,0,0,1,0,28.5)"><g class="label"><rect width="24.671875" height="23.5" rx="3" ry="3"></rect><text x="0" y="0" transform="matrix(1,0,0,1,5,16.75)"><tspan class="quote">“</tspan><tspan>1</tspan><tspan class="quote">”</tspan></text></g></g></g></g></g><g class="match-fragment" transform="matrix(1,0,0,1,74.6719,30.25)"><path d="M0,21.75q10,0 10,-10v-1.75q0,-10 10,-10h22.1875q10,0 10,10v1.75q0,10 10,10"></path><g class="escape" transform="matrix(1,0,0,1,15,10)"><g class="label"><rect width="32.1875" height="23.5" rx="3" ry="3"></rect><text x="0" y="0" transform="matrix(1,0,0,1,5,16.75)"><tspan>digit</tspan></text></g></g></g><g class="match-fragment escape" transform="matrix(1,0,0,1,146.8594,40.25)"><g class="label"><rect width="32.1875" height="23.5" rx="3" ry="3"></rect><text x="0" y="0" transform="matrix(1,0,0,1,5,16.75)"><tspan>digit</tspan></text></g></g></g></g></g></g></g><path d="M30,112H0M524.437605517578,112H544.4376220703125"></path><circle cx="0" cy="112" r="5"></circle><circle cx="544.4376220703125" cy="112" r="5"></circle></g></svg>
          