
            <svg xmlns="http://www.w3.org/2000/svg" xmlns:cc="http://creativecommons.org/ns#" xmlns:rdf="http://www.w3.org/1999/02/22-rdf-syntax-ns#" version="1.1" width="328.375" height="187.5">
              <defs>
                <style type="text/css">svg {
            background-color: #fff; }
          
          .root text,
          .root tspan {
            font: 12px Arial; }
          
          .root path {
            fill-opacity: 0;
            stroke-width: 2px;
            stroke: #000; }
          
          .root circle {
            fill: #6b6659;
            stroke-width: 2px;
            stroke: #000; }
          
          .anchor text, .any-character text {
            fill: #fff; }
          
          .anchor rect, .any-character rect {
            fill: #6b6659; }
          
          .escape text, .charset-escape text, .literal text {
            fill: #000; }
          
          .escape rect, .charset-escape rect {
            fill: #bada55; }
          
          .literal rect {
            fill: #dae9e5; }
          
          .charset .charset-box {
            fill: #cbcbba; }
          
          .subexp .subexp-label tspan,
          .charset .charset-label tspan,
          .match-fragment .repeat-label tspan {
            font-size: 10px; }
          
          .repeat-label {
            cursor: help; }
          
          .subexp .subexp-label tspan,
          .charset .charset-label tspan {
            dominant-baseline: text-after-edge; }
          
          .subexp .subexp-box {
            stroke: #908c83;
            stroke-dasharray: 6,2;
            stroke-width: 2px;
            fill-opacity: 0; }
          
          .quote {
            fill: #908c83; }
          </style>
              </defs>
              <metadata>
                <rdf:rdf>
                  <cc:license rdf:about="http://creativecommons.org/licenses/by/3.0/">
                    <cc:permits rdf:resource="http://creativecommons.org/ns#Reproduction"></cc:permits>
                    <cc:permits rdf:resource="http://creativecommons.org/ns#Distribution"></cc:permits>
                    <cc:requires rdf:resource="http://creativecommons.org/ns#Notice"></cc:requires>
                    <cc:requires rdf:resource="http://creativecommons.org/ns#Attribution"></cc:requires>
                    <cc:permits rdf:resource="http://creativecommons.org/ns#DerivativeWorks"></cc:permits>
                  </cc:license>
                </rdf:rdf>
              </metadata>
            <desc>Created with Snap</desc><g class="root" transform="matrix(1,0,0,1,15,10)"><g class="regexp match" transform="matrix(1,0,0,1,10,0)"><path d="M186.1875,94.25H231.1875"></path><g class="match-fragment" transform="matrix(1,0,0,1,0,0)"><path d="M0,94.25q10,0 10,-10v-74.25q0,-10 10,-10h171.1875q10,0 10,10v74.25q0,10 10,10"></path><g class="subexp" transform="matrix(1,0,0,1,15,10)"><rect rx="3" ry="3" class="subexp-box" transform="matrix(1,0,0,1,0,11)" width="181.1875" height="146.5"></rect><text x="0" y="0" class="subexp-label" transform="matrix(1,0,0,1,0,11)"><tspan>group #1</tspan></text><g class="regexp" transform="matrix(1,0,0,1,10,21)"><path d="M10,21.75q0,-10 10,-10M151.1875,21.75q0,-10 -10,-10M0,63.25c10,0 10,0 20,0M161.1875,63.25c-10,0 -10,0 -20,0M10,104.75q0,10 10,10M151.1875,104.75q0,10 -10,10M0,63.25q10,0 10,-10V21.75M161.1875,63.25q-10,0 -10,-10V21.75M0,63.25q10,0 10,10V104.75M161.1875,63.25q-10,0 -10,10V104.75"></path><g transform="matrix(1,0,0,1,20,0)" class="regexp-matches"><path d="M0,11.75h0M121.1875,11.75H121.1875M0,63.25h26M105.1875,63.25H121.1875M0,114.75h23.6563M97.5313,114.75H121.1875"></path><g class="match" transform="matrix(1,0,0,1,0,0)"><path d="M22,11.75H42M74.1875,11.75H99.1875"></path><g class="match-fragment literal" transform="matrix(1,0,0,1,0,0)"><g class="label"><rect width="22" height="23.5" rx="3" ry="3"></rect><text x="0" y="0" transform="matrix(1,0,0,1,5,16.75)"><tspan class="quote">“</tspan><tspan>(</tspan><tspan class="quote">”</tspan></text></g></g><g class="match-fragment" transform="matrix(1,0,0,1,32,0)"><path d="M10,11.75q-10,0 -10,10v1.75q0,10 10,10h32.1875q10,0 10,-10v-1.75q0,-10 -10,-10M52.1875,26.75l5,-5m-5,5l-5,-5"></path><g class="escape" transform="matrix(1,0,0,1,10,0)"><g class="label"><rect width="32.1875" height="23.5" rx="3" ry="3"></rect><text x="0" y="0" transform="matrix(1,0,0,1,5,16.75)"><tspan>digit</tspan></text></g></g><text x="0" y="0" class="repeat-label" transform="matrix(1,0,0,1,9.3906,44.5)"><tspan>2…3 times</tspan><title><text x="0" y="0">repeats 3…4 times in total</text></title></text></g><g class="match-fragment literal" transform="matrix(1,0,0,1,99.1875,0)"><g class="label"><rect width="22" height="23.5" rx="3" ry="3"></rect><text x="0" y="0" transform="matrix(1,0,0,1,5,16.75)"><tspan class="quote">“</tspan><tspan>)</tspan><tspan class="quote">”</tspan></text></g></g></g><g class="match" transform="matrix(1,0,0,1,16,51.5)"><path d="M42.1875,11.75H67.1875"></path><g class="match-fragment" transform="matrix(1,0,0,1,0,0)"><path d="M10,11.75q-10,0 -10,10v1.75q0,10 10,10h32.1875q10,0 10,-10v-1.75q0,-10 -10,-10M52.1875,26.75l5,-5m-5,5l-5,-5"></path><g class="escape" transform="matrix(1,0,0,1,10,0)"><g class="label"><rect width="32.1875" height="23.5" rx="3" ry="3"></rect><text x="0" y="0" transform="matrix(1,0,0,1,5,16.75)"><tspan>digit</tspan></text></g></g><text x="0" y="0" class="repeat-label" transform="matrix(1,0,0,1,9.3906,44.5)"><tspan>2…3 times</tspan><title><text x="0" y="0">repeats 3…4 times in total</text></title></text></g><g class="match-fragment literal" transform="matrix(1,0,0,1,67.1875,0)"><g class="label"><rect width="22" height="23.5" rx="3" ry="3"></rect><text x="0" y="0" transform="matrix(1,0,0,1,5,16.75)"><tspan class="quote">“</tspan><tspan>-</tspan><tspan class="quote">”</tspan></text></g></g></g><g class="match match-fragment escape" transform="matrix(1,0,0,1,23.6563,103)"><g class="label"><rect width="73.875" height="23.5" rx="3" ry="3"></rect><text x="0" y="0" transform="matrix(1,0,0,1,5,16.75)"><tspan>white space</tspan></text></g></g></g></g></g></g><g class="match-fragment" transform="matrix(1,0,0,1,221.1875,82.5)"><path d="M10,11.75q-10,0 -10,10v1.75q0,10 10,10h32.1875q10,0 10,-10v-1.75q0,-10 -10,-10M52.1875,26.75l5,-5m-5,5l-5,-5"></path><g class="escape" transform="matrix(1,0,0,1,10,0)"><g class="label"><rect width="32.1875" height="23.5" rx="3" ry="3"></rect><text x="0" y="0" transform="matrix(1,0,0,1,5,16.75)"><tspan>digit</tspan></text></g></g><text x="0" y="0" class="repeat-label" transform="matrix(1,0,0,1,24.9531,44.5)"><tspan>7 times</tspan><title><text x="0" y="0">repeats 8 times in total</text></title></text></g></g><path d="M35,94.25H0M273.375,94.25H298.375"></path><circle cx="0" cy="94.25" r="5"></circle><circle cx="298.375" cy="94.25" r="5"></circle></g></svg>
          